# xmcd
#
# Track frame offsets: 
#        150
#        22360
#        45105
#        68315
#        88845
#        111248
#        130630
#        151813
#
# Disc length: 2367 seconds
#
# Revision: 0
# Processed by: cddbd v1.5.2PL0 Copyright (c) Steve Scherf et al.
# Submitted via: ExactAudioCopy v0.99pb5
#
DISCID=59093d08
DTITLE=Rush  - Grace Under Pressure - Warner Bros. 13481  (SHM)  
DYEAR=1900
DGENRE=
TTITLE0=Distant Early Warning
TTITLE1=Afterimage
TTITLE2=Red Sector A
TTITLE3=The Enemy Within (Part I of Fear)
TTITLE4=The Body Electric
TTITLE5=Kid Gloves
TTITLE6=Red Lenses
TTITLE7=Between the Wheels
EXTD=
EXTT0=
EXTT1=
EXTT2=
EXTT3=
EXTT4=
EXTT5=
EXTT6=
EXTT7=
PLAYORDER=
